USFL
nRows=124
nColumns=2
inDegrees=yes
endheader
time	med_gas_r	
3.14899	 55.832761	
3.22056	 55.852536	
3.29213	 55.849185	
3.3637	 55.872338	
3.43526	 55.745416	
3.50683	 55.763374	
3.5784	 55.657450	
3.64997	 55.525016	
3.72154	 55.563629	
3.7931	 55.649498	
3.86467	 55.791359	
3.93624	 55.776613	
4.00781	 55.761036	
4.07938	 55.472896	
4.15094	 55.472681	
4.22251	 55.470831	
4.29408	 55.551370	
4.36565	 55.582475	
4.43722	 55.564510	
4.50878	 55.564253	
4.58035	 55.623016	
4.65192	 55.755234	
4.72349	 57.742218	
4.79506	 57.713496	
4.86662	 57.670930	
4.93819	 57.730534	
5.00976	 57.758486	
5.08133	 57.809137	
5.1529	 57.940908	
5.22446	 57.963858	
5.29603	 57.969253	
5.3676	 57.944906	
5.43917	 57.924142	
5.51074	 58.033713	
5.5823	 57.932940	
5.65387	 58.051277	
5.72544	 58.141492	
5.79701	 58.212197	
5.86858	 58.167592	
5.94014	 58.246463	
6.01171	 58.245770	
6.08328	 58.245540	
6.15485	 58.312543	
6.22642	 58.391442	
6.29798	 58.375626	
6.36955	 58.406023	
6.44112	 58.313868	
6.51269	 58.203663	
6.58426	 58.037531	
6.65582	 57.904080	
6.72739	 57.894462	
6.79896	 57.823443	
6.87053	 57.631739	
6.9421	 57.605396	
7.01366	 57.276783	
7.08523	 57.183306	
7.1568	 55.109178	
7.22837	 54.892895	
7.29994	 54.789756	
7.3715	 54.741263	
7.44307	 54.616503	
7.51464	 54.588520	
7.58621	 54.550500	
7.65778	 54.570609	
7.72934	 54.494421	
7.80091	 54.559413	
7.87248	 54.507895	
7.94405	 54.563493	
8.01562	 54.595824	
8.08718	 54.553760	
8.15875	 54.561294	
8.23032	 54.610243	
8.30189	 54.599610	
8.37346	 54.590571	
8.44502	 54.539030	
8.51659	 54.601601	
8.58816	 54.592042	
8.65973	 54.511616	
8.7313	 54.554970	
8.80286	 54.551822	
8.87443	 54.564084	
8.946	 54.423735	
9.01757	 54.399427	
9.08914	 54.468544	
9.1607	 54.446560	
9.23227	 54.465307	
9.30384	 54.450574	
9.37541	 54.501078	
9.44698	 54.498463	
9.51854	 54.501377	
9.59011	 54.531643	
9.66168	 54.565479	
9.73325	 54.525849	
9.80482	 54.597630	
9.87638	 54.608934	
9.94795	 54.570357	
10.0195	 54.495474	
10.0911	 54.470279	
10.1627	 54.476082	
10.2342	 54.461989	
10.3058	 54.450719	
10.3774	 54.450777	
10.4489	 54.455058	
10.5205	 54.407932	
10.5921	 54.395959	
10.6636	 54.423600	
10.7352	 54.431706	
10.8068	 54.445461	
10.8783	 54.395294	
10.9499	 54.344130	
11.0215	 54.341566	
11.093	 54.373216	
11.1646	 54.362055	
11.2362	 54.401717	
11.3077	 54.362840	
11.3793	 54.369604	
11.4509	 54.317265	
11.5224	 54.306710	
11.594	 54.324438	
11.6656	 54.315803	
11.7372	 54.298414	
11.8087	 54.311822	
11.8803	 54.302337	
11.9519	 54.204567	
